<svg version="1.1" xmlns="http://www.w3.org/2000/svg" style="display: block;" viewBox="465.333 4 1117.333 1129.333" width="1117.333px" height="1129.333px" preserveAspectRatio="none" fill="rgb(0, 0, 0)">
<path transform="translate(0,0)" fill="rgb(21, 22, 28)" d="M 672.04 26.3772 L 672.959 26.2474 C 680.953 25.196 700.152 25.5638 708.739 25.5572 L 773.936 25.5701 L 989.785 25.5627 L 1254.82 25.581 L 1330.73 25.5505 C 1347.47 25.5538 1367.74 24.9081 1383.88 27.2521 C 1418.93 32.3561 1452 46.6393 1479.74 68.6528 C 1523.5 102.855 1551.9 153.015 1558.73 208.131 C 1560.85 226.655 1560.3 247.121 1560.33 265.939 L 1560.38 347.668 L 1560.41 612.437 L 1560.25 824.278 L 1560.35 885.526 C 1560.37 901.897 1560.83 917.509 1558.64 933.8 C 1545.85 1028.86 1467.71 1099.55 1373.38 1110.12 C 1357.16 1111.22 1335.4 1110.72 1318.77 1110.74 L 1225.44 1110.78 L 937.869 1110.69 L 761.475 1110.72 C 682.348 1110.75 630.047 1117.71 563.613 1063.76 C 521.502 1029.9 494.562 980.698 488.718 926.98 C 487.127 911.269 487.616 892.643 487.601 876.595 L 487.569 797.888 L 487.471 530.5 L 487.18 317.552 L 487.261 253.279 C 487.342 238.008 487.051 219.818 489.348 204.936 C 495.253 166.463 511.403 130.288 536.104 100.206 C 569.339 59.533 619.625 31.6463 672.04 26.3772 z"/>
<path transform="translate(0,0)" fill="rgb(155, 237, 4)" d="M 1276.08 471.461 C 1297.33 480.682 1311.69 496.322 1312.42 520.427 C 1312.67 532.691 1309.27 544.754 1302.65 555.079 C 1296.28 564.811 1271.69 593.329 1263.34 603.462 L 1169.75 715.725 L 1029.14 885.214 L 982.681 940.867 C 974.021 951.212 965.404 961.39 956.568 971.582 C 936.577 994.637 901.397 995.38 879.486 974.016 C 868.649 963.351 863.013 948.484 864.056 933.316 C 865.307 916.226 890.186 859.499 897.572 841.248 L 944.569 724.689 C 948.333 715.278 958.908 692.22 958.696 683.648 C 958.085 658.948 923.268 662.825 908.635 662.873 L 837.09 663.082 C 823.307 663.117 799.642 664.007 787.188 661.217 C 777.169 658.987 767.888 654.229 760.229 647.397 C 740.908 630.02 735.98 597.947 751.255 576.439 C 764.451 557.859 780.288 539.713 794.816 522.001 L 872.394 426.596 C 920.096 367.911 968.146 309.51 1016.54 251.397 L 1062.69 195.802 C 1082.21 172.315 1095.11 149.372 1129.48 148.577 C 1143.62 148.184 1157.3 153.604 1167.33 163.572 C 1197.55 193.203 1179.59 224.649 1167.08 256.347 C 1153.22 291.787 1138.98 327.082 1124.38 362.227 C 1114.03 386.876 1103.5 411.479 1093.45 436.243 C 1089.45 446.101 1089.99 455.011 1098.13 462.415 C 1102.64 462.889 1107.44 464.294 1111.18 464.482 C 1125.66 465.207 1143.44 466.311 1157.5 466.265 C 1175.48 466.207 1261.17 463.534 1274.89 469.145 L 1276.08 471.461 z"/>
<path transform="translate(0,0)" fill="rgb(20, 24, 19)" d="M 1098.13 462.415 C 1102.64 462.889 1107.44 464.294 1111.18 464.482 C 1125.66 465.207 1143.44 466.311 1157.5 466.265 C 1175.48 466.207 1261.17 463.534 1274.89 469.145 L 1276.08 471.461 C 1264.86 468.071 1254.83 469.038 1242.98 468.813 C 1198.24 467.96 1152.82 470.681 1108.24 467.809 C 1104.73 467.583 1100.74 464.58 1098.13 462.415 z"/>
</svg>