<svg width="24" height="24" viewBox="0 0 24 24" fill="none" xmlns="http://www.w3.org/2000/svg">
  <path d="M12 15.2a3.2 3.2 0 1 0 0-6.4 3.2 3.2 0 0 0 0 6.4z" stroke="#cdd6f4" stroke-width="1.6"/>
  <path d="M19.4 13.4a7.8 7.8 0 0 0 0-2.8l-2.1-.4a6.1 6.1 0 0 0-.7-1.6l1.2-1.7a7.9 7.9 0 0 0-2-2l-1.7 1.2a6.1 6.1 0 0 0-1.6-.7l-.4-2.1a7.8 7.8 0 0 0-2.8 0l-.4 2.1a6.1 6.1 0 0 0-1.6.7L6 4.8a7.9 7.9 0 0 0-2 2l1.2 1.7a6.1 6.1 0 0 0-.7 1.6l-2.1.4a7.8 7.8 0 0 0 0 2.8l2.1.4a6.1 6.1 0 0 0 .7 1.6L4 17a7.9 7.9 0 0 0 2 2l1.7-1.2a6.1 6.1 0 0 0 1.6.7l.4 2.1a7.8 7.8 0 0 0 2.8 0l.4-2.1a6.1 6.1 0 0 0 1.6-.7l1.7 1.2a7.9 7.9 0 0 0 2-2l-1.2-1.7a6.1 6.1 0 0 0 .7-1.6l2.1-.4z" stroke="#cdd6f4" stroke-width="1.6" stroke-linecap="round" stroke-linejoin="round"/>
</svg>
